<?xml version="1.0" encoding="UTF-8"?>
<svg xmlns="http://www.w3.org/2000/svg" width="1024" height="1024" viewBox="0 0 1024 1024">
  <!-- background -->
  <rect x="96" y="96" width="832" height="832" rx="180" fill="#ffffff" stroke="#e6e6e6" stroke-width="8"/>
  <!-- subtle inner highlight -->
  <path d="M220 140 H804 C860 140 904 184 904 240 V300
           C904 220 840 168 760 168 H264
           C220 168 184 204 184 248 V240
           C184 184 204 140 220 140 Z"
        fill="#ffffff" opacity="0.45"/>
  <!-- mark -->
  <g transform="translate(256,208) scale(1.0)">
    <g fill="#111111">
    <!-- prongs -->
    <rect x="206" y="72" width="40" height="96" rx="20"/>
    <rect x="266" y="72" width="40" height="96" rx="20"/>
    <!-- top bar -->
    <rect x="160" y="148" width="192" height="56" rx="28"/>
    <!-- body (cup) -->
    <path d="M184 204
             C184 264 220 312 256 312
             C292 312 328 264 328 204
             Z"/>
    <!-- stem -->
    <rect x="236" y="300" width="40" height="92" rx="20"/>
    <!-- arrow -->
    <path d="M256 452 L188 384 H324 Z"/>
    <!-- orbit swoosh -->
    <path d="M176 318
             C176 280 210 254 248 254
             C282 254 304 266 336 292
             C312 292 294 302 282 316
             C270 330 268 350 276 370
             C250 358 224 350 200 350
             C186 350 176 340 176 318
             Z"/>
  </g>

  </g>
</svg>